<?xml version="1.0" encoding="UTF-8"?>
<svg id="Layer_1" xmlns="http://www.w3.org/2000/svg" version="1.1" viewBox="0 0 800 800">
  <!-- Generator: Adobe Illustrator 29.8.2, SVG Export Plug-In . SVG Version: 2.1.1 Build 3)  -->
  <defs>
    <style>
      .st0 {
        fill: none;
        stroke: #eee;
        stroke-miterlimit: 10;
        stroke-width: 5px;
      }
    </style>
  </defs>
  <path class="st0" d="M709.93,341.18l-60.04-80.46,32.23-95.07c3.17-9.34.75-19.68-6.21-26.65-6.98-6.98-17.31-9.39-26.65-6.21l-95.07,32.23-80.46-60.04c-7.9-5.9-18.48-6.8-27.27-2.32-8.79,4.48-14.27,13.56-14.14,23.42l1.29,100.38-81.96,57.97c-8.06,5.7-12.18,15.47-10.64,25.22,1.55,9.74,8.48,17.76,17.9,20.7l67.9,21.11L28.66,749.6c-10.12,10.12-10.12,26.53,0,36.65s26.53,10.12,36.65,0l398.14-398.15,21.11,67.91c2.92,9.42,10.95,16.36,20.7,17.9,1.36.22,2.71.32,4.06.32,8.33,0,16.26-4.01,21.15-10.95l57.97-81.96,100.38,1.28h.33c9.73,0,18.66-5.46,23.1-14.15,4.48-8.79,3.58-19.36-2.32-27.27h0Z"/>
  <polygon class="st0" points="270.9 105.12 250.02 66.95 229.15 105.12 190.98 125.99 229.15 146.86 250.02 185.03 270.9 146.86 309.06 125.99 270.9 105.12"/>
  <polygon class="st0" points="567.1 600.76 550.22 569.89 533.34 600.76 502.46 617.65 533.34 634.53 550.22 665.4 567.1 634.53 597.97 617.65 567.1 600.76"/>
  <polygon class="st0" points="588.63 45.54 571.74 14.67 554.86 45.54 523.99 62.42 554.86 79.31 571.74 110.18 588.63 79.31 619.5 62.42 588.63 45.54"/>
  <polygon class="st0" points="766.62 222.68 756.51 204.2 746.41 222.68 727.93 232.78 746.41 242.88 756.51 261.36 766.62 242.88 785.09 232.78 766.62 222.68"/>
  <polygon class="st0" points="769.73 459.56 727.93 471.8 686.14 459.56 698.38 501.35 686.14 543.15 727.93 530.91 769.73 543.15 757.49 501.35 769.73 459.56"/>
</svg>