<?xml version="1.0" encoding="UTF-8"?>
<svg id="Layer_1" xmlns="http://www.w3.org/2000/svg" version="1.1" viewBox="0 0 800 800">
  <!-- Generator: Adobe Illustrator 29.8.2, SVG Export Plug-In . SVG Version: 2.1.1 Build 3)  -->
  <defs>
    <style>
      .st0 {
        fill: none;
        stroke: #0679c5;
        stroke-linecap: round;
        stroke-miterlimit: 133.33;
        stroke-width: 16px;
      }
    </style>
  </defs>
  <path class="st0" d="M436.95,390.08c9.25-3.03,19.19-4.68,29.56-4.68s19.92,1.58,29.01,4.5M324.2,427.64c-4.17-.76-8.48-1.16-12.89-1.16-36.74,0-66.51,27.59-66.51,61.63s29.78,61.62,66.51,61.62h155.2c48.98,0,88.69-36.79,88.69-82.16,0-35.97-24.94-66.53-59.67-77.67M324.2,427.64c-3.56-8.89-5.5-18.51-5.5-28.55,0-45.38,39.71-82.16,88.69-82.16,45.62,0,83.2,31.92,88.13,72.97M324.2,427.64c8.76,1.59,16.9,4.78,24.06,9.22"/>
  <path class="st0" d="M733.33,393.26c0-87.75,0-131.62-25.65-160.14-2.36-2.62-4.85-5.12-7.48-7.48-28.52-25.65-72.39-25.65-160.14-25.65h-12.46c-38.46,0-57.68,0-75.6-5.11-9.84-2.81-19.33-6.74-28.28-11.71-16.28-9.06-29.88-22.65-57.07-49.85l-18.34-18.34c-9.11-9.11-13.67-13.67-18.46-17.64-20.65-17.12-45.98-27.61-72.68-30.1-6.19-.58-12.64-.58-25.53-.58-29.42,0-44.13,0-56.38,2.31-53.94,10.18-96.12,52.37-106.3,106.3-2.31,12.25-2.31,26.96-2.31,56.38M733.04,533.33c-1.2,82.65-7.33,129.51-38.76,160.95-39.05,39.05-101.91,39.05-227.61,39.05h-133.33c-125.71,0-188.56,0-227.61-39.05s-39.05-101.91-39.05-227.61v-100"/>
</svg>