<?xml version="1.0" encoding="UTF-8"?>
<svg id="Capa_1" xmlns="http://www.w3.org/2000/svg" version="1.1" viewBox="0 0 800 800">
  <!-- Generator: Adobe Illustrator 29.8.2, SVG Export Plug-In . SVG Version: 2.1.1 Build 3)  -->
  <defs>
    <style>
      .st0 {
        stroke: #0679c5;
        stroke-width: 15px;
      }

      .st0, .st1 {
        fill: none;
        stroke-miterlimit: 10;
      }

      .st1 {
        stroke: #eee;
        stroke-width: 5px;
      }

      .st2 {
        fill: #0679c5;
        font-family: Calibri-Bold, Calibri;
        font-size: 109.1px;
        font-weight: 700;
      }

      .st2, .st3 {
        isolation: isolate;
      }
    </style>
  </defs>
  <path class="st0" d="M370.35,164.97h-16.31c5.06-8.94,7.96-19.27,7.96-30.27,0-34.01-27.57-61.59-61.59-61.59s-61.59,27.57-61.59,61.59c0,11.01,2.9,21.33,7.96,30.27h-16.31c-17.8,0-32.36,14.56-32.36,32.36v27.64c0,17.8,14.56,32.36,32.36,32.36h139.88c17.8,0,32.36-14.56,32.36-32.36v-27.64c0-17.8-14.56-32.36-32.36-32.36h0Z"/>
  <g class="st3">
    <g class="st3">
      <g class="st3">
        <text class="st2" transform="translate(438.65 218.52)"><tspan x="0" y="0">CVX</tspan></text>
      </g>
    </g>
  </g>
  <path class="st1" d="M402.71,278.13"/>
  <line class="st0" x1="621.32" y1="712.41" x2="178.68" y2="712.41"/>
  <line class="st0" x1="621.32" y1="452.41" x2="178.68" y2="452.41"/>
  <line class="st0" x1="621.32" y1="539.07" x2="178.68" y2="539.07"/>
  <line class="st0" x1="621.32" y1="625.74" x2="178.68" y2="625.74"/>
  <line class="st0" x1="621.32" y1="365.74" x2="178.68" y2="365.74"/>
  <rect class="st0" x="112.33" y="9.33" width="575.34" height="781.33" rx="83.67" ry="83.67"/>
</svg>