<?xml version="1.0" encoding="UTF-8"?>
<svg id="Layer_1" xmlns="http://www.w3.org/2000/svg" version="1.1" viewBox="0 0 800 800">
  <!-- Generator: Adobe Illustrator 29.8.2, SVG Export Plug-In . SVG Version: 2.1.1 Build 3)  -->
  <defs>
    <style>
      .st0 {
        stroke-width: 15px;
      }

      .st0, .st1 {
        fill: none;
        stroke: #0679c5;
        stroke-miterlimit: 10;
      }

      .st1 {
        stroke-width: 10px;
      }
    </style>
  </defs>
  <path class="st0" d="M709.99,338.54l-59.38-79.58,31.88-94.03c3.14-9.24.74-19.46-6.14-26.36-6.9-6.9-17.12-9.29-26.36-6.14l-94.03,31.88-79.58-59.38c-7.81-5.84-18.28-6.73-26.97-2.29-8.69,4.43-14.11,13.41-13.99,23.16l1.28,99.28-81.06,57.34c-7.97,5.64-12.05,15.3-10.52,24.94,1.53,9.63,8.39,17.57,17.7,20.47l67.16,20.88L36.17,742.49c-10.01,10.01-10.01,26.24,0,36.25s26.24,10.01,36.25,0l393.79-393.8,20.88,67.17c2.89,9.32,10.83,16.18,20.47,17.7,1.35.22,2.68.32,4.02.32,8.24,0,16.08-3.97,20.92-10.83l57.34-81.06,99.28,1.27h.33c9.62,0,18.46-5.4,22.85-14,4.43-8.69,3.54-19.15-2.29-26.97h0Z"/>
  <polygon class="st0" points="270.9 105.12 250.02 66.95 229.15 105.12 190.98 125.99 229.15 146.86 250.02 185.03 270.9 146.86 309.06 125.99 270.9 105.12"/>
  <polygon class="st0" points="567.1 600.76 550.22 569.89 533.34 600.76 502.46 617.65 533.34 634.53 550.22 665.4 567.1 634.53 597.97 617.65 567.1 600.76"/>
  <polygon class="st0" points="588.63 51.54 571.74 20.67 554.86 51.54 523.99 68.42 554.86 85.31 571.74 116.18 588.63 85.31 619.5 68.42 588.63 51.54"/>
  <polygon class="st1" points="753.77 219.24 743.66 200.76 733.56 219.24 715.08 229.34 733.56 239.44 743.66 257.92 753.77 239.44 772.24 229.34 753.77 219.24"/>
  <polygon class="st0" points="769.73 459.56 727.93 471.8 686.14 459.56 698.38 501.35 686.14 543.15 727.93 530.91 769.73 543.15 757.49 501.35 769.73 459.56"/>
</svg>